<svg xmlns="http://www.w3.org/2000/svg" xmlns:xlink="http://www.w3.org/1999/xlink" width="97.624" height="97.624" viewBox="0 0 97.624 97.624"><defs><clipPath id="clip-path"><path id="path1798" d="M0-682.665H97.624v97.624H0Z" transform="translate(0 682.665)" fill="#063e7f"></path></clipPath></defs><g id="g1788" transform="translate(0 682.665)"><g id="g1790" transform="translate(35.251 -658.393)"><path id="path1792" d="M0,0H27.123" fill="none" stroke="#fff" stroke-linecap="round" stroke-linejoin="round" stroke-miterlimit="10" stroke-width="4"></path></g><g id="g1794" transform="translate(0 -682.665)"><g id="g1796" clip-path="url(#clip-path)"><g id="g1802" transform="translate(27.457 36.402)"><path id="path1804" d="M0-10.49v3.72a1.75,1.75,0,0,0,1.75,1.75h39.21a1.75,1.75,0,0,0,1.75-1.75v-3.72a1.75,1.75,0,0,0-1.75-1.75H1.75A1.75,1.75,0,0,0,0-10.49Z" transform="translate(0 12.24)" fill="none" stroke="#fff" stroke-linecap="round" stroke-linejoin="round" stroke-miterlimit="10" stroke-width="3"></path></g><g id="g1806" transform="translate(27.457 52.589)"><path id="path1808" d="M0-10.49v3.72a1.75,1.75,0,0,0,1.75,1.75h39.21a1.75,1.75,0,0,0,1.75-1.75v-3.72a1.75,1.75,0,0,0-1.75-1.75H1.75A1.75,1.75,0,0,0,0-10.49Z" transform="translate(0 12.24)" fill="none" stroke="#fff" stroke-linecap="round" stroke-linejoin="round" stroke-miterlimit="10" stroke-width="3"></path></g><g id="g1810" transform="translate(42.012 69.803)"><path id="path1812" d="M-60.688,0H-67.34a3.474,3.474,0,0,0-3.474,3.474v.194A3.474,3.474,0,0,0-67.34,7.143h6.653a3.474,3.474,0,0,0,3.474-3.474V3.474A3.474,3.474,0,0,0-60.688,0Z" transform="translate(70.814)" fill="none" stroke="#fff" stroke-linecap="round" stroke-linejoin="round" stroke-miterlimit="10" stroke-width="3"></path></g><g id="g1814" transform="translate(14.729 1.43)"><path id="path1816" d="M-383.988,0h-59.984a4.091,4.091,0,0,0-4.091,4.091V14.455H-379.9V4.091A4.091,4.091,0,0,0-383.988,0Z" transform="translate(448.063 0)" fill="none" stroke="#fff" stroke-linecap="round" stroke-linejoin="round" stroke-miterlimit="10" stroke-width="4"></path></g><g id="g1818" transform="translate(14.729 33.819)"><path id="path1820" d="M0,5V56.122a4.091,4.091,0,0,0,4.091,4.091H40.884" transform="translate(0 -5)" fill="none" stroke="#fff" stroke-linecap="round" stroke-linejoin="round" stroke-miterlimit="10" stroke-width="4"></path></g><g id="g1822" transform="translate(14.729 1.43)"><path id="path1824" d="M-393.532-523.052a4.093,4.093,0,0,0,2.5-3.77V-606.24a4.091,4.091,0,0,0-4.091-4.091h-59.984a4.092,4.092,0,0,0-4.091,4.091v15.891" transform="translate(459.2 610.332)" fill="none" stroke="#fff" stroke-linecap="round" stroke-linejoin="round" stroke-miterlimit="10" stroke-width="4"></path></g><g id="g1826" transform="translate(20.861 6.567)"><path id="path1828" d="M-18.076,0a2.518,2.518,0,0,0-2.518,2.518,2.518,2.518,0,0,0,2.518,2.518,2.518,2.518,0,0,0,2.518-2.518A2.518,2.518,0,0,0-18.076,0Z" transform="translate(20.593 0)" fill="none" stroke="#fff" stroke-linecap="round" stroke-linejoin="round" stroke-miterlimit="10" stroke-width="2"></path></g><g id="g1830" transform="translate(30.645 6.567)"><path id="path1832" d="M-18.076,0a2.518,2.518,0,0,0-2.518,2.518,2.518,2.518,0,0,0,2.518,2.518,2.518,2.518,0,0,0,2.518-2.518A2.518,2.518,0,0,0-18.076,0Z" transform="translate(20.593 0)" fill="none" stroke="#fff" stroke-linecap="round" stroke-linejoin="round" stroke-miterlimit="10" stroke-width="2"></path></g><g id="g1834" transform="translate(40.43 6.567)"><path id="path1836" d="M-18.076,0a2.518,2.518,0,0,0-2.518,2.518,2.518,2.518,0,0,0,2.518,2.518,2.518,2.518,0,0,0,2.518-2.518A2.518,2.518,0,0,0-18.076,0Z" transform="translate(20.593 0)" fill="none" stroke="#fff" stroke-linecap="round" stroke-linejoin="round" stroke-miterlimit="10" stroke-width="2"></path></g><g id="g1838" transform="translate(61.418 73.375)"><path id="path1840" d="M-97.977-52.152l-14.837-8.566a1.008,1.008,0,0,0-1.512.873v17.132a1.008,1.008,0,0,0,1.512.873l3.822-2.206a1.176,1.176,0,0,1,1.606.43l2.9,5.016a1.129,1.129,0,0,0,1.543.413l3.2-1.848a1.129,1.129,0,0,0,.413-1.542l-2.9-5.016A1.176,1.176,0,0,1-101.8-48.2l3.822-2.207A1.008,1.008,0,0,0-97.977-52.152Z" transform="translate(114.326 60.855)" fill="none" stroke="#fff" stroke-linecap="round" stroke-linejoin="round" stroke-miterlimit="10" stroke-width="3"></path></g></g></g></g></svg>