<svg xmlns="http://www.w3.org/2000/svg" xmlns:xlink="http://www.w3.org/1999/xlink" width="97.157" height="97.157" viewBox="0 0 97.157 97.157"><defs><clipPath id="clip-path"><path id="path1824" d="M0-682.665H97.157v97.157H0Z" transform="translate(0 682.665)" fill="#a37156"></path></clipPath></defs><g id="g1818" transform="translate(0 682.665)"><g id="g1820" transform="translate(0 -682.665)"><g id="g1822" clip-path="url(#clip-path)"><g id="g1828" transform="translate(9.352 75.082)"><path id="path1830" d="M-142.365,0l.37,4.015a4.672,4.672,0,0,1-3.365,5.146l-15.078,4.231a7.606,7.606,0,0,0-5.551,7.323h64.977a7.606,7.606,0,0,0-5.551-7.323l-15.078-4.231a4.672,4.672,0,0,1-3.365-5.146L-124.636,0" transform="translate(165.989)" fill="none" stroke="#a37156" stroke-linecap="round" stroke-linejoin="round" stroke-miterlimit="10" stroke-width="3"></path></g><g id="g1832" transform="translate(32.109 1.359)"><path id="path1834" d="M-116.5-61.4c1.455-10.392-9.6-10.188-9.6-10.188s-10.756-.2-9.652,9.769" transform="translate(135.83 71.585)" fill="none" stroke="#a37156" stroke-linecap="round" stroke-linejoin="round" stroke-miterlimit="10" stroke-width="3"></path></g><g id="g1836" transform="translate(63.883 49.172)"><path id="path1838" d="M0-32.167A27.127,27.127,0,0,0,.428-35.75c.025-.475.042-1.079.052-1.755" transform="translate(0 37.505)" fill="none" stroke="#a37156" stroke-linecap="round" stroke-linejoin="round" stroke-miterlimit="10" stroke-width="3"></path></g><g id="g1840" transform="translate(19.308 48.802)"><path id="path1842" d="M0,0C.009.751.028,1.469.063,2.126.463,9.737,4,16.228,8.911,21.862a34.808,34.808,0,0,0,5.661,5.1,13.481,13.481,0,0,0,15.923,0,34.8,34.8,0,0,0,5.661-5.1,43.937,43.937,0,0,0,4.2-5.626" fill="none" stroke="#a37156" stroke-linecap="round" stroke-linejoin="round" stroke-miterlimit="10" stroke-width="3"></path></g><g id="g1844" transform="translate(30.238 46.543)"><path id="path1846" d="M0,0A4.209,4.209,0,0,0,2.992,1.788,4.194,4.194,0,0,0,6.78.032" fill="none" stroke="#a37156" stroke-linecap="round" stroke-linejoin="round" stroke-miterlimit="10" stroke-width="3"></path></g><g id="g1848" transform="translate(37.793 61.457)"><path id="path1850" d="M-48.778,0a5.024,5.024,0,0,1-3.571,2.134,5.006,5.006,0,0,1-4.523-2.1" transform="translate(56.872)" fill="none" stroke="#a37156" stroke-linecap="round" stroke-linejoin="round" stroke-miterlimit="10" stroke-width="3"></path></g><g id="g1852" transform="translate(14.128 17.186)"><path id="path1854" d="M-49.15,0a25.873,25.873,0,0,0-6.394,9.045c-1.848,4.74-2.575,11.284-.526,15.955a32.705,32.705,0,0,0,1.887,3.64c1.779,2.974,2.066,3.511,2.066,3.511a34.856,34.856,0,0,1,8.98-19.015" transform="translate(57.306)" fill="none" stroke="#a37156" stroke-linecap="round" stroke-linejoin="round" stroke-miterlimit="10" stroke-width="3"></path></g><g id="g1856" transform="translate(33.265 21.524)"><path id="path1858" d="M0-26.811A30.019,30.019,0,0,1,9.16-31.26" transform="translate(0 31.26)" fill="none" stroke="#a37156" stroke-linecap="round" stroke-linejoin="round" stroke-miterlimit="10" stroke-width="3"></path></g><g id="g1860" transform="translate(21.723 10.1)"><path id="path1862" d="M-256.783-235.456c-1.578-11.942-10.268-21.188-20.739-27.024A37.577,37.577,0,0,0-294-267.153a19.231,19.231,0,0,0-5.389.25c1.035-1.045,2.7-2.35,2.355-2.074A28.616,28.616,0,0,1-289.959-273a30.51,30.51,0,0,1,8.727-1.506,39.9,39.9,0,0,1,5.572.223c7.905.852,14.926,4.253,19.566,10.982,3.929,5.7,6.1,14.245,3.193,20.872a32.6,32.6,0,0,1-1.884,3.635Z" transform="translate(299.393 274.527)" fill="none" stroke="#a37156" stroke-linecap="round" stroke-linejoin="round" stroke-miterlimit="10" stroke-width="3"></path></g><g id="g1864" transform="translate(73.165 71.984)"><path id="path1866" d="M-73.592-53.577l-3.78,3.585-8.432-8.89,3.78-3.585Z" transform="translate(85.804 62.468)" fill="none" stroke="#a37156" stroke-linecap="round" stroke-linejoin="round" stroke-miterlimit="10" stroke-width="3"></path></g><g id="g1868" transform="translate(41.414 38.307)"><path id="path1870" d="M0,0,6.616,6.976" fill="none" stroke="#a37156" stroke-linecap="round" stroke-linejoin="round" stroke-miterlimit="10" stroke-width="3"></path></g><g id="g1872" transform="translate(49.047 46.723)"><path id="path1874" d="M-135.273-95.289l3.754,3.958L-139-84.24l-18.379-19.378a1.257,1.257,0,0,1,.047-1.777l5.652-5.361a1.257,1.257,0,0,1,1.778.047l10.174,10.727" transform="translate(157.72 111.101)" fill="none" stroke="#a37156" stroke-linecap="round" stroke-linejoin="round" stroke-miterlimit="10" stroke-width="3"></path></g><g id="g1876" transform="translate(49.047 46.723)"><path id="path1878" d="M-78.327-35.248-85.8-28.156l-5.176-5.457a1.258,1.258,0,0,1,.047-1.778l5.652-5.361A1.257,1.257,0,0,1-83.5-40.7Z" transform="translate(91.324 41.097)" fill="none" stroke="#a37156" stroke-linecap="round" stroke-linejoin="round" stroke-miterlimit="10" stroke-width="3"></path></g><g id="g1880" transform="translate(46.514 43.882)"><path id="path1882" d="M-48.114-22.591l-4.465,4.235-3.043-3.208a1.733,1.733,0,0,1,.065-2.45l1.951-1.851a1.733,1.733,0,0,1,2.45.065Z" transform="translate(56.098 26.339)" fill="none" stroke="#a37156" stroke-linecap="round" stroke-linejoin="round" stroke-miterlimit="10" stroke-width="3"></path></g><g id="g1884" transform="translate(66.221 65.049)"><path id="path1886" d="M-82.776-24.578l-9.8,9.3a1.239,1.239,0,0,1-1.752-.046l-1.84-1.94a1.24,1.24,0,0,1,.046-1.752l9.8-9.3a1.24,1.24,0,0,1,1.752.046l1.84,1.94A1.239,1.239,0,0,1-82.776-24.578Z" transform="translate(96.511 28.656)" fill="none" stroke="#a37156" stroke-linecap="round" stroke-linejoin="round" stroke-miterlimit="10" stroke-width="3"></path></g><g id="g1888" transform="translate(79.168 78.571)"><path id="path1890" d="M0-49.366l8.637-8.192" transform="translate(0 57.557)" fill="none" stroke="#a37156" stroke-linecap="round" stroke-linejoin="round" stroke-miterlimit="10" stroke-width="3"></path></g></g></g></g></svg>