<svg xmlns="http://www.w3.org/2000/svg" width="72.835" height="103.208" viewBox="0 0 72.835 103.208"><g id="titulo" transform="translate(0.189 0.25)"><g id="Grupo_8" data-name="Grupo 8" transform="translate(11.815 13.357)"><g id="Grupo_7" data-name="Grupo 7"><path id="Trazado_8444" data-name="Trazado 8444" d="M180.888,80.776a1.688,1.688,0,1,0-3.066,1.415,21.041,21.041,0,1,1-19.112-12.232,21.082,21.082,0,0,1,15.6,6.926,1.688,1.688,0,1,0,2.5-2.266A24.414,24.414,0,1,0,183.125,91,24.219,24.219,0,0,0,180.888,80.776Z" transform="translate(-134.297 -66.583)" fill="#a37156" stroke="#ad7f4a" stroke-width="0.5"></path></g></g><g id="Grupo_10" data-name="Grupo 10" transform="translate(0)"><g id="Grupo_9" data-name="Grupo 9"><path id="Trazado_8445" data-name="Trazado 8445" d="M145.346,37.77a13.583,13.583,0,0,1,1.165-4.374c.9-2.392,1.839-4.866,1.049-7.3-.824-2.536-3.19-4.078-5.278-5.439a13.093,13.093,0,0,1-3.373-2.707,13.241,13.241,0,0,1-1.565-4.1c-.649-2.388-1.385-5.095-3.511-6.643-2.106-1.532-4.773-1.406-7.352-1.285a13.414,13.414,0,0,1-4.429-.234,12.863,12.863,0,0,1-3.544-2.329C116.556,1.788,114.344,0,111.629,0s-4.927,1.788-6.878,3.365a12.871,12.871,0,0,1-3.544,2.329,13.421,13.421,0,0,1-4.43.234c-2.579-.122-5.247-.248-7.353,1.285-2.127,1.548-2.862,4.255-3.512,6.643a13.236,13.236,0,0,1-1.565,4.1,13.1,13.1,0,0,1-3.373,2.707c-2.088,1.36-4.455,2.9-5.278,5.438-.791,2.435.144,4.908,1.049,7.3a13.586,13.586,0,0,1,1.165,4.374,13.582,13.582,0,0,1-1.165,4.374c-.9,2.392-1.839,4.866-1.049,7.3.824,2.536,3.19,4.078,5.278,5.438a13.1,13.1,0,0,1,3.373,2.707,13.242,13.242,0,0,1,1.565,4.1c.649,2.388,1.385,5.095,3.512,6.643,2.105,1.532,4.773,1.406,7.352,1.285a13.409,13.409,0,0,1,4.429.233,12.867,12.867,0,0,1,3.544,2.329,24.762,24.762,0,0,0,3.04,2.207L101.318,97.6l-5.974-6.657a1.689,1.689,0,0,0-1.749-.488l-8.553,2.606,5.362-19.23a1.688,1.688,0,1,0-3.252-.907l-6.19,22.2a1.688,1.688,0,0,0,2.118,2.068L93.55,94l7.311,8.147a1.688,1.688,0,0,0,2.883-.674l7.239-25.97a5.565,5.565,0,0,0,1.29,0l7.242,25.97a1.688,1.688,0,0,0,2.883.674L129.706,94l10.47,3.19a1.688,1.688,0,0,0,2.118-2.068l-7.666-27.492c1.528-1.586,2.155-3.883,2.715-5.944a13.234,13.234,0,0,1,1.565-4.1,13.1,13.1,0,0,1,3.373-2.707c2.088-1.36,4.455-2.9,5.278-5.438.791-2.434-.144-4.908-1.049-7.3A13.588,13.588,0,0,1,145.346,37.77Zm-7.13,55.292-8.555-2.606a1.688,1.688,0,0,0-1.749.488L121.941,97.6l-6.475-23.217a24.72,24.72,0,0,0,3.041-2.208,12.877,12.877,0,0,1,3.544-2.329,13.422,13.422,0,0,1,4.43-.234,17.4,17.4,0,0,0,5.125-.257ZM144.348,48.4c-.455,1.4-2.133,2.494-3.91,3.652a15.552,15.552,0,0,0-4.259,3.549,15.707,15.707,0,0,0-2.093,5.2c-.552,2.031-1.073,3.949-2.24,4.8-1.146.833-3.118.741-5.207.642a15.921,15.921,0,0,0-5.631.395,15.3,15.3,0,0,0-4.624,2.915c-1.664,1.345-3.235,2.615-4.756,2.615s-3.092-1.27-4.756-2.615a15.293,15.293,0,0,0-4.624-2.915,11.362,11.362,0,0,0-3.518-.461c-.7,0-1.414.033-2.114.066-2.088.1-4.061.192-5.207-.642-1.167-.849-1.688-2.767-2.24-4.8a15.7,15.7,0,0,0-2.093-5.2,15.55,15.55,0,0,0-4.259-3.549C81.042,50.9,79.364,49.8,78.909,48.4c-.424-1.307.266-3.132,1-5.064a16.108,16.108,0,0,0,1.383-5.567A16.11,16.11,0,0,0,79.905,32.2c-.73-1.932-1.42-3.757-1-5.064.455-1.4,2.133-2.494,3.91-3.652a15.558,15.558,0,0,0,4.259-3.549,15.707,15.707,0,0,0,2.093-5.2c.552-2.031,1.073-3.949,2.24-4.8C92.557,9.11,94.53,9.2,96.618,9.3a15.917,15.917,0,0,0,5.631-.395,15.3,15.3,0,0,0,4.624-2.915c1.663-1.345,3.235-2.615,4.755-2.615s3.092,1.27,4.756,2.615a15.294,15.294,0,0,0,4.624,2.915,15.906,15.906,0,0,0,5.631.395c2.088-.1,4.061-.191,5.207.642,1.167.849,1.688,2.767,2.24,4.8a15.7,15.7,0,0,0,2.093,5.2,15.544,15.544,0,0,0,4.259,3.549c1.777,1.157,3.455,2.251,3.91,3.652.424,1.307-.265,3.132-1,5.064a16.106,16.106,0,0,0-1.383,5.567,16.107,16.107,0,0,0,1.383,5.567C144.083,45.27,144.773,47.095,144.348,48.4Z" transform="translate(-75.4)" fill="#a37156" stroke="#ad7f4a" stroke-width="0.5"></path></g></g><g id="Grupo_12" data-name="Grupo 12" transform="translate(28.02 27.271)"><g id="Grupo_11" data-name="Grupo 11" transform="translate(0)"><path id="Trazado_8446" data-name="Trazado 8446" d="M229.809,135.945H216.768a1.688,1.688,0,1,0,0,3.377h13.041a1.688,1.688,0,1,0,0-3.377Z" transform="translate(-215.08 -135.945)" fill="#a37156" stroke="#ad7f4a" stroke-width="0.5"></path></g></g><g id="Grupo_14" data-name="Grupo 14" transform="translate(28.02 44.894)"><g id="Grupo_13" data-name="Grupo 13" transform="translate(0)"><path id="Trazado_8447" data-name="Trazado 8447" d="M229.809,223.795H216.768a1.688,1.688,0,1,0,0,3.376h13.041a1.688,1.688,0,1,0,0-3.376Z" transform="translate(-215.08 -223.795)" fill="#a37156" stroke="#ad7f4a" stroke-width="0.5"></path></g></g><g id="Grupo_16" data-name="Grupo 16" transform="translate(40.651 36.082)"><g id="Grupo_15" data-name="Grupo 15"><path id="Trazado_8448" data-name="Trazado 8448" d="M284.818,179.87h-5.086a1.688,1.688,0,1,0,0,3.376h5.085a1.688,1.688,0,1,0,0-3.376Z" transform="translate(-278.044 -179.87)" fill="#a37156" stroke="#ad7f4a" stroke-width="0.5"></path></g></g><g id="Grupo_18" data-name="Grupo 18" transform="translate(23.345 36.082)"><g id="Grupo_17" data-name="Grupo 17" transform="translate(0)"><path id="Trazado_8449" data-name="Trazado 8449" d="M205.481,179.87H193.462a1.688,1.688,0,0,0,0,3.376h12.019a1.688,1.688,0,1,0,0-3.376Z" transform="translate(-191.774 -179.87)" fill="#a37156" stroke="#ad7f4a" stroke-width="0.5"></path></g></g></g></svg>